<mxfile host="Electron" agent="Mozilla/5.0 (Windows NT 10.0; Win64; x64) AppleWebKit/537.36 (KHTML, like Gecko) draw.io/25.0.2 Chrome/128.0.6613.186 Electron/32.2.5 Safari/537.36" version="25.0.2">
  <diagram name="Σελίδα-1" id="PXPXjUrn2MuG7zSWxlW4">
    <mxGraphModel dx="2527" dy="1410" grid="0" gridSize="10" guides="1" tooltips="1" connect="1" arrows="1" fold="1" page="0" pageScale="1" pageWidth="850" pageHeight="1100" math="0" shadow="0">
      <root>
        <mxCell id="0" />
        <mxCell id="1" parent="0" />
        <mxCell id="bV5o39lrloHroLVsIdIn-1" value="1" style="ellipse;whiteSpace=wrap;html=1;aspect=fixed;fontSize=15;" parent="1" vertex="1">
          <mxGeometry x="-367" y="356" width="40" height="40" as="geometry" />
        </mxCell>
        <mxCell id="bV5o39lrloHroLVsIdIn-2" value="6" style="ellipse;whiteSpace=wrap;html=1;aspect=fixed;fontSize=15;" parent="1" vertex="1">
          <mxGeometry x="-249" y="247" width="40" height="40" as="geometry" />
        </mxCell>
        <mxCell id="bV5o39lrloHroLVsIdIn-3" value="2" style="ellipse;whiteSpace=wrap;html=1;aspect=fixed;fontSize=15;" parent="1" vertex="1">
          <mxGeometry x="-249" y="461" width="40" height="40" as="geometry" />
        </mxCell>
        <mxCell id="bV5o39lrloHroLVsIdIn-4" value="Α1(5)" style="endArrow=classic;html=1;rounded=0;entryX=0;entryY=1;entryDx=0;entryDy=0;exitX=1;exitY=0;exitDx=0;exitDy=0;fontSize=15;" parent="1" source="bV5o39lrloHroLVsIdIn-1" target="bV5o39lrloHroLVsIdIn-2" edge="1">
          <mxGeometry x="-0.0746" y="25" width="50" height="50" relative="1" as="geometry">
            <mxPoint x="-250" y="421" as="sourcePoint" />
            <mxPoint x="-200" y="371" as="targetPoint" />
            <mxPoint as="offset" />
          </mxGeometry>
        </mxCell>
        <mxCell id="bV5o39lrloHroLVsIdIn-5" value="Α2(7)" style="endArrow=classic;html=1;rounded=0;exitX=1;exitY=1;exitDx=0;exitDy=0;fontSize=16;strokeColor=default;shadow=1;fontStyle=1" parent="1" source="bV5o39lrloHroLVsIdIn-1" target="bV5o39lrloHroLVsIdIn-3" edge="1">
          <mxGeometry x="-0.0276" y="24" width="50" height="50" relative="1" as="geometry">
            <mxPoint x="-250" y="421" as="sourcePoint" />
            <mxPoint x="-200" y="371" as="targetPoint" />
            <mxPoint as="offset" />
          </mxGeometry>
        </mxCell>
        <mxCell id="bV5o39lrloHroLVsIdIn-6" value="7" style="ellipse;whiteSpace=wrap;html=1;aspect=fixed;fontSize=15;" parent="1" vertex="1">
          <mxGeometry x="-135" y="143" width="40" height="40" as="geometry" />
        </mxCell>
        <mxCell id="bV5o39lrloHroLVsIdIn-7" value="Γ1(11)" style="endArrow=classic;html=1;rounded=0;entryX=0;entryY=1;entryDx=0;entryDy=0;exitX=1;exitY=0;exitDx=0;exitDy=0;fontSize=15;" parent="1" source="bV5o39lrloHroLVsIdIn-2" target="bV5o39lrloHroLVsIdIn-6" edge="1">
          <mxGeometry x="-0.164" y="26" width="50" height="50" relative="1" as="geometry">
            <mxPoint x="69" y="246" as="sourcePoint" />
            <mxPoint x="119" y="196" as="targetPoint" />
            <mxPoint y="1" as="offset" />
          </mxGeometry>
        </mxCell>
        <mxCell id="bV5o39lrloHroLVsIdIn-8" value="d1" style="html=1;verticalAlign=bottom;labelBackgroundColor=none;endArrow=open;endFill=0;dashed=1;rounded=0;exitX=0.5;exitY=0;exitDx=0;exitDy=0;entryX=0.5;entryY=1;entryDx=0;entryDy=0;fontSize=15;" parent="1" source="bV5o39lrloHroLVsIdIn-3" target="bV5o39lrloHroLVsIdIn-2" edge="1">
          <mxGeometry x="-0.1264" y="-20" width="160" relative="1" as="geometry">
            <mxPoint x="-325" y="390" as="sourcePoint" />
            <mxPoint x="-165" y="390" as="targetPoint" />
            <mxPoint y="-1" as="offset" />
          </mxGeometry>
        </mxCell>
        <mxCell id="bV5o39lrloHroLVsIdIn-17" value="Θ1(8)" style="edgeStyle=orthogonalEdgeStyle;rounded=0;orthogonalLoop=1;jettySize=auto;html=1;exitX=1;exitY=0.5;exitDx=0;exitDy=0;entryX=0;entryY=0.5;entryDx=0;entryDy=0;fontSize=15;" parent="1" source="bV5o39lrloHroLVsIdIn-9" target="bV5o39lrloHroLVsIdIn-11" edge="1">
          <mxGeometry x="-0.0395" y="11" relative="1" as="geometry">
            <mxPoint as="offset" />
          </mxGeometry>
        </mxCell>
        <mxCell id="bV5o39lrloHroLVsIdIn-9" value="8" style="ellipse;whiteSpace=wrap;html=1;aspect=fixed;fontSize=15;" parent="1" vertex="1">
          <mxGeometry x="-14" y="30" width="40" height="40" as="geometry" />
        </mxCell>
        <mxCell id="bV5o39lrloHroLVsIdIn-10" value="Γ2(4)" style="endArrow=classic;html=1;rounded=0;entryX=0;entryY=1;entryDx=0;entryDy=0;exitX=1;exitY=0;exitDx=0;exitDy=0;fontSize=15;" parent="1" source="bV5o39lrloHroLVsIdIn-6" target="bV5o39lrloHroLVsIdIn-9" edge="1">
          <mxGeometry x="-0.096" y="24" width="50" height="50" relative="1" as="geometry">
            <mxPoint x="-99" y="146" as="sourcePoint" />
            <mxPoint x="-9" y="65" as="targetPoint" />
            <mxPoint as="offset" />
          </mxGeometry>
        </mxCell>
        <mxCell id="bV5o39lrloHroLVsIdIn-52" value="Κ1(2)" style="edgeStyle=orthogonalEdgeStyle;rounded=0;orthogonalLoop=1;jettySize=auto;html=1;exitX=1;exitY=0.5;exitDx=0;exitDy=0;entryX=0;entryY=0;entryDx=0;entryDy=0;fontSize=15;" parent="1" source="bV5o39lrloHroLVsIdIn-11" target="bV5o39lrloHroLVsIdIn-33" edge="1">
          <mxGeometry x="-0.0398" y="11" relative="1" as="geometry">
            <mxPoint as="offset" />
          </mxGeometry>
        </mxCell>
        <mxCell id="bV5o39lrloHroLVsIdIn-11" value="11" style="ellipse;whiteSpace=wrap;html=1;aspect=fixed;fontSize=15;" parent="1" vertex="1">
          <mxGeometry x="330" y="30" width="40" height="40" as="geometry" />
        </mxCell>
        <mxCell id="bV5o39lrloHroLVsIdIn-34" value="Δ2(3)" style="edgeStyle=orthogonalEdgeStyle;rounded=0;orthogonalLoop=1;jettySize=auto;html=1;exitX=1;exitY=0.5;exitDx=0;exitDy=0;entryX=0.5;entryY=0;entryDx=0;entryDy=0;fontSize=15;" parent="1" source="bV5o39lrloHroLVsIdIn-12" target="bV5o39lrloHroLVsIdIn-33" edge="1">
          <mxGeometry x="-0.054" y="11" relative="1" as="geometry">
            <mxPoint as="offset" />
          </mxGeometry>
        </mxCell>
        <mxCell id="bV5o39lrloHroLVsIdIn-12" value="9" style="ellipse;whiteSpace=wrap;html=1;aspect=fixed;fontSize=15;" parent="1" vertex="1">
          <mxGeometry x="139" y="-90" width="40" height="40" as="geometry" />
        </mxCell>
        <mxCell id="bV5o39lrloHroLVsIdIn-13" value="10" style="ellipse;whiteSpace=wrap;html=1;aspect=fixed;fontSize=15;" parent="1" vertex="1">
          <mxGeometry x="144" y="257" width="40" height="40" as="geometry" />
        </mxCell>
        <mxCell id="bV5o39lrloHroLVsIdIn-18" value="Δ1(3)" style="endArrow=classic;html=1;rounded=0;entryX=0;entryY=1;entryDx=0;entryDy=0;exitX=1;exitY=0;exitDx=0;exitDy=0;fontSize=15;" parent="1" source="bV5o39lrloHroLVsIdIn-9" target="bV5o39lrloHroLVsIdIn-12" edge="1">
          <mxGeometry x="-0.1576" y="21" width="50" height="50" relative="1" as="geometry">
            <mxPoint x="26" y="33" as="sourcePoint" />
            <mxPoint x="119" y="-52" as="targetPoint" />
            <mxPoint as="offset" />
          </mxGeometry>
        </mxCell>
        <mxCell id="bV5o39lrloHroLVsIdIn-19" value="Η1(2)" style="endArrow=classic;html=1;rounded=0;entryX=0;entryY=0;entryDx=0;entryDy=0;exitX=1;exitY=1;exitDx=0;exitDy=0;fontSize=15;" parent="1" source="bV5o39lrloHroLVsIdIn-9" target="bV5o39lrloHroLVsIdIn-13" edge="1">
          <mxGeometry x="0.2417" y="25" width="50" height="50" relative="1" as="geometry">
            <mxPoint x="21" y="193" as="sourcePoint" />
            <mxPoint x="142" y="96" as="targetPoint" />
            <mxPoint as="offset" />
          </mxGeometry>
        </mxCell>
        <mxCell id="bV5o39lrloHroLVsIdIn-20" value="Β1(4)" style="endArrow=classic;html=1;rounded=0;entryX=0.03;entryY=0.266;entryDx=0;entryDy=0;exitX=1;exitY=1;exitDx=0;exitDy=0;entryPerimeter=0;fontSize=16;fontStyle=1;shadow=1;" parent="1" source="bV5o39lrloHroLVsIdIn-3" target="bV5o39lrloHroLVsIdIn-21" edge="1">
          <mxGeometry x="-0.0683" y="21" width="50" height="50" relative="1" as="geometry">
            <mxPoint x="-218" y="630" as="sourcePoint" />
            <mxPoint x="-132" y="554" as="targetPoint" />
            <mxPoint as="offset" />
          </mxGeometry>
        </mxCell>
        <mxCell id="bV5o39lrloHroLVsIdIn-21" value="3" style="ellipse;whiteSpace=wrap;html=1;aspect=fixed;fontSize=15;" parent="1" vertex="1">
          <mxGeometry x="-135" y="548" width="40" height="40" as="geometry" />
        </mxCell>
        <mxCell id="bV5o39lrloHroLVsIdIn-28" value="Β3(30)" style="edgeStyle=orthogonalEdgeStyle;rounded=0;orthogonalLoop=1;jettySize=auto;html=1;exitX=1;exitY=0.5;exitDx=0;exitDy=0;entryX=0;entryY=0.5;entryDx=0;entryDy=0;fontSize=16;fontStyle=1;shadow=1;" parent="1" source="bV5o39lrloHroLVsIdIn-22" target="bV5o39lrloHroLVsIdIn-27" edge="1">
          <mxGeometry x="-0.0092" y="17" relative="1" as="geometry">
            <mxPoint as="offset" />
          </mxGeometry>
        </mxCell>
        <mxCell id="bV5o39lrloHroLVsIdIn-22" value="4" style="ellipse;whiteSpace=wrap;html=1;aspect=fixed;fontSize=15;" parent="1" vertex="1">
          <mxGeometry x="-14" y="648" width="40" height="40" as="geometry" />
        </mxCell>
        <mxCell id="bV5o39lrloHroLVsIdIn-25" value="Β2(14)" style="endArrow=classic;html=1;rounded=0;entryX=0;entryY=0;entryDx=0;entryDy=0;exitX=1;exitY=1;exitDx=0;exitDy=0;fontSize=16;shadow=1;fontStyle=1" parent="1" source="bV5o39lrloHroLVsIdIn-21" target="bV5o39lrloHroLVsIdIn-22" edge="1">
          <mxGeometry x="0.0513" y="26" width="50" height="50" relative="1" as="geometry">
            <mxPoint x="-83" y="578" as="sourcePoint" />
            <mxPoint x="-2" y="642" as="targetPoint" />
            <mxPoint as="offset" />
          </mxGeometry>
        </mxCell>
        <mxCell id="bV5o39lrloHroLVsIdIn-30" value="Ε1(2)" style="edgeStyle=orthogonalEdgeStyle;rounded=0;orthogonalLoop=1;jettySize=auto;html=1;exitX=1;exitY=0.5;exitDx=0;exitDy=0;entryX=0;entryY=0.5;entryDx=0;entryDy=0;fontSize=16;shadow=1;fontStyle=1" parent="1" source="bV5o39lrloHroLVsIdIn-27" target="bV5o39lrloHroLVsIdIn-29" edge="1">
          <mxGeometry x="-0.0092" y="17" relative="1" as="geometry">
            <mxPoint as="offset" />
          </mxGeometry>
        </mxCell>
        <mxCell id="bV5o39lrloHroLVsIdIn-27" value="5" style="ellipse;whiteSpace=wrap;html=1;aspect=fixed;fontSize=15;" parent="1" vertex="1">
          <mxGeometry x="135" y="648" width="40" height="40" as="geometry" />
        </mxCell>
        <mxCell id="bV5o39lrloHroLVsIdIn-32" value="Ε2(6)" style="edgeStyle=orthogonalEdgeStyle;rounded=0;orthogonalLoop=1;jettySize=auto;html=1;exitX=1;exitY=0.5;exitDx=0;exitDy=0;entryX=0;entryY=0.5;entryDx=0;entryDy=0;fontSize=16;fontStyle=1;shadow=1;" parent="1" source="bV5o39lrloHroLVsIdIn-29" target="bV5o39lrloHroLVsIdIn-31" edge="1">
          <mxGeometry x="-0.0092" y="16" relative="1" as="geometry">
            <mxPoint as="offset" />
          </mxGeometry>
        </mxCell>
        <mxCell id="bV5o39lrloHroLVsIdIn-29" value="14" style="ellipse;whiteSpace=wrap;html=1;aspect=fixed;fontSize=15;" parent="1" vertex="1">
          <mxGeometry x="284" y="648" width="40" height="40" as="geometry" />
        </mxCell>
        <mxCell id="bV5o39lrloHroLVsIdIn-40" value="Ζ1(12)" style="edgeStyle=orthogonalEdgeStyle;rounded=0;orthogonalLoop=1;jettySize=auto;html=1;exitX=1;exitY=0.5;exitDx=0;exitDy=0;entryX=0.5;entryY=1;entryDx=0;entryDy=0;fontStyle=1;fontSize=16;shadow=1;" parent="1" source="bV5o39lrloHroLVsIdIn-31" target="bV5o39lrloHroLVsIdIn-33" edge="1">
          <mxGeometry x="-0.0097" y="18" relative="1" as="geometry">
            <mxPoint x="1" as="offset" />
          </mxGeometry>
        </mxCell>
        <mxCell id="bV5o39lrloHroLVsIdIn-31" value="15" style="ellipse;whiteSpace=wrap;html=1;aspect=fixed;fontSize=15;" parent="1" vertex="1">
          <mxGeometry x="433" y="648" width="40" height="40" as="geometry" />
        </mxCell>
        <mxCell id="bV5o39lrloHroLVsIdIn-33" value="19" style="ellipse;whiteSpace=wrap;html=1;aspect=fixed;fontSize=15;" parent="1" vertex="1">
          <mxGeometry x="900" y="356" width="40" height="40" as="geometry" />
        </mxCell>
        <mxCell id="bV5o39lrloHroLVsIdIn-35" value="16" style="ellipse;whiteSpace=wrap;html=1;aspect=fixed;fontSize=15;" parent="1" vertex="1">
          <mxGeometry x="652" y="501" width="40" height="40" as="geometry" />
        </mxCell>
        <mxCell id="bV5o39lrloHroLVsIdIn-38" value="Κ2(1)" style="endArrow=classic;html=1;rounded=0;exitX=1;exitY=0;exitDx=0;exitDy=0;entryX=0;entryY=1;entryDx=0;entryDy=0;fontSize=15;" parent="1" source="bV5o39lrloHroLVsIdIn-31" target="bV5o39lrloHroLVsIdIn-35" edge="1">
          <mxGeometry x="0.0643" y="22" width="50" height="50" relative="1" as="geometry">
            <mxPoint x="486" y="655" as="sourcePoint" />
            <mxPoint x="536" y="605" as="targetPoint" />
            <mxPoint as="offset" />
          </mxGeometry>
        </mxCell>
        <mxCell id="bV5o39lrloHroLVsIdIn-39" value="Κ3(1)" style="endArrow=classic;html=1;rounded=0;entryX=0;entryY=1;entryDx=0;entryDy=0;exitX=0.953;exitY=0.336;exitDx=0;exitDy=0;exitPerimeter=0;fontSize=15;" parent="1" source="bV5o39lrloHroLVsIdIn-35" target="bV5o39lrloHroLVsIdIn-33" edge="1">
          <mxGeometry x="-0.0778" y="23" width="50" height="50" relative="1" as="geometry">
            <mxPoint x="630" y="553" as="sourcePoint" />
            <mxPoint x="761" y="474" as="targetPoint" />
            <mxPoint as="offset" />
          </mxGeometry>
        </mxCell>
        <mxCell id="bV5o39lrloHroLVsIdIn-41" value="17" style="ellipse;whiteSpace=wrap;html=1;aspect=fixed;fontSize=15;" parent="1" vertex="1">
          <mxGeometry x="652" y="702" width="40" height="40" as="geometry" />
        </mxCell>
        <mxCell id="bV5o39lrloHroLVsIdIn-42" value="18" style="ellipse;whiteSpace=wrap;html=1;aspect=fixed;fontSize=15;" parent="1" vertex="1">
          <mxGeometry x="652" y="792" width="40" height="40" as="geometry" />
        </mxCell>
        <mxCell id="bV5o39lrloHroLVsIdIn-43" value="Ζ2(12)" style="endArrow=classic;html=1;rounded=0;entryX=0;entryY=0.5;entryDx=0;entryDy=0;exitX=1;exitY=0.5;exitDx=0;exitDy=0;fontSize=16;fontStyle=1;shadow=1;" parent="1" source="bV5o39lrloHroLVsIdIn-31" target="bV5o39lrloHroLVsIdIn-41" edge="1">
          <mxGeometry x="0.6779" y="20" width="50" height="50" relative="1" as="geometry">
            <mxPoint x="484" y="809" as="sourcePoint" />
            <mxPoint x="534" y="759" as="targetPoint" />
            <mxPoint as="offset" />
          </mxGeometry>
        </mxCell>
        <mxCell id="bV5o39lrloHroLVsIdIn-45" value="Ζ3(12)" style="endArrow=classic;html=1;rounded=0;entryX=0;entryY=0.5;entryDx=0;entryDy=0;exitX=1;exitY=0.5;exitDx=0;exitDy=0;fontSize=16;shadow=1;fontStyle=1" parent="1" source="bV5o39lrloHroLVsIdIn-31" target="bV5o39lrloHroLVsIdIn-42" edge="1">
          <mxGeometry x="0.7139" y="25" width="50" height="50" relative="1" as="geometry">
            <mxPoint x="477" y="692" as="sourcePoint" />
            <mxPoint x="662" y="749" as="targetPoint" />
            <mxPoint as="offset" />
          </mxGeometry>
        </mxCell>
        <mxCell id="bV5o39lrloHroLVsIdIn-46" value="d7" style="html=1;verticalAlign=bottom;labelBackgroundColor=none;endArrow=open;endFill=0;dashed=1;rounded=0;entryX=1;entryY=1;entryDx=0;entryDy=0;fontSize=15;" parent="1" target="bV5o39lrloHroLVsIdIn-33" edge="1">
          <mxGeometry x="-0.232" y="6" width="160" relative="1" as="geometry">
            <mxPoint x="692" y="722" as="sourcePoint" />
            <mxPoint x="852" y="720.63" as="targetPoint" />
            <Array as="points">
              <mxPoint x="932" y="723" />
            </Array>
            <mxPoint as="offset" />
          </mxGeometry>
        </mxCell>
        <mxCell id="bV5o39lrloHroLVsIdIn-47" value="d8" style="html=1;verticalAlign=bottom;labelBackgroundColor=none;endArrow=open;endFill=0;dashed=1;rounded=0;exitX=1;exitY=0.5;exitDx=0;exitDy=0;entryX=1;entryY=0.5;entryDx=0;entryDy=0;fontSize=15;" parent="1" source="bV5o39lrloHroLVsIdIn-42" target="bV5o39lrloHroLVsIdIn-33" edge="1">
          <mxGeometry x="-0.5232" y="11" width="160" relative="1" as="geometry">
            <mxPoint x="723" y="815" as="sourcePoint" />
            <mxPoint x="883" y="815" as="targetPoint" />
            <Array as="points">
              <mxPoint x="1016" y="816" />
              <mxPoint x="1016" y="376" />
            </Array>
            <mxPoint as="offset" />
          </mxGeometry>
        </mxCell>
        <mxCell id="bV5o39lrloHroLVsIdIn-49" value="d6" style="html=1;verticalAlign=bottom;labelBackgroundColor=none;endArrow=open;endFill=0;dashed=1;rounded=0;entryX=0.325;entryY=0;entryDx=0;entryDy=0;entryPerimeter=0;exitX=0.825;exitY=0.975;exitDx=0;exitDy=0;exitPerimeter=0;fontSize=15;" parent="1" source="bV5o39lrloHroLVsIdIn-13" target="bV5o39lrloHroLVsIdIn-31" edge="1">
          <mxGeometry x="-0.015" y="25" width="160" relative="1" as="geometry">
            <mxPoint x="154" y="255" as="sourcePoint" />
            <mxPoint x="271" y="372" as="targetPoint" />
            <mxPoint as="offset" />
          </mxGeometry>
        </mxCell>
        <mxCell id="bV5o39lrloHroLVsIdIn-51" value="Θ2(8)" style="endArrow=classic;html=1;rounded=0;exitX=1;exitY=1;exitDx=0;exitDy=0;entryX=0;entryY=0;entryDx=0;entryDy=0;fontSize=15;" parent="1" source="bV5o39lrloHroLVsIdIn-12" target="bV5o39lrloHroLVsIdIn-11" edge="1">
          <mxGeometry x="0.3247" y="21" width="50" height="50" relative="1" as="geometry">
            <mxPoint x="201" y="92" as="sourcePoint" />
            <mxPoint x="251" y="42" as="targetPoint" />
            <mxPoint as="offset" />
          </mxGeometry>
        </mxCell>
        <mxCell id="bV5o39lrloHroLVsIdIn-53" value="12" style="ellipse;whiteSpace=wrap;html=1;aspect=fixed;fontSize=15;" parent="1" vertex="1">
          <mxGeometry x="330" y="214" width="40" height="40" as="geometry" />
        </mxCell>
        <mxCell id="bV5o39lrloHroLVsIdIn-54" value="d4" style="html=1;verticalAlign=bottom;labelBackgroundColor=none;endArrow=open;endFill=0;dashed=1;rounded=0;exitX=1;exitY=0.5;exitDx=0;exitDy=0;entryX=0;entryY=0.5;entryDx=0;entryDy=0;fontSize=15;" parent="1" source="bV5o39lrloHroLVsIdIn-13" target="bV5o39lrloHroLVsIdIn-53" edge="1">
          <mxGeometry x="0.0004" width="160" relative="1" as="geometry">
            <mxPoint x="189" y="231.37" as="sourcePoint" />
            <mxPoint x="307" y="231" as="targetPoint" />
            <mxPoint as="offset" />
          </mxGeometry>
        </mxCell>
        <mxCell id="bV5o39lrloHroLVsIdIn-55" value="d2" style="html=1;verticalAlign=bottom;labelBackgroundColor=none;endArrow=open;endFill=0;dashed=1;rounded=0;exitX=1;exitY=1;exitDx=0;exitDy=0;entryX=0.5;entryY=0;entryDx=0;entryDy=0;fontSize=15;" parent="1" source="bV5o39lrloHroLVsIdIn-9" target="bV5o39lrloHroLVsIdIn-29" edge="1">
          <mxGeometry x="0.1024" y="-21" width="160" relative="1" as="geometry">
            <mxPoint x="-91" y="352" as="sourcePoint" />
            <mxPoint x="69" y="352" as="targetPoint" />
            <mxPoint as="offset" />
          </mxGeometry>
        </mxCell>
        <mxCell id="bV5o39lrloHroLVsIdIn-56" value="d3" style="html=1;verticalAlign=bottom;labelBackgroundColor=none;endArrow=open;endFill=0;dashed=1;rounded=0;exitX=0.5;exitY=0;exitDx=0;exitDy=0;entryX=0;entryY=1;entryDx=0;entryDy=0;fontSize=15;" parent="1" source="bV5o39lrloHroLVsIdIn-27" target="bV5o39lrloHroLVsIdIn-11" edge="1">
          <mxGeometry x="-0.7428" y="-17" width="160" relative="1" as="geometry">
            <mxPoint x="329" y="294" as="sourcePoint" />
            <mxPoint x="489" y="294" as="targetPoint" />
            <mxPoint x="1" as="offset" />
          </mxGeometry>
        </mxCell>
        <mxCell id="bV5o39lrloHroLVsIdIn-57" value="d5" style="html=1;verticalAlign=bottom;labelBackgroundColor=none;endArrow=open;endFill=0;dashed=1;rounded=0;exitX=1;exitY=1;exitDx=0;exitDy=0;entryX=0;entryY=0;entryDx=0;entryDy=0;fontSize=15;" parent="1" source="bV5o39lrloHroLVsIdIn-12" target="bV5o39lrloHroLVsIdIn-53" edge="1">
          <mxGeometry x="-0.6684" y="-24" width="160" relative="1" as="geometry">
            <mxPoint x="329" y="294" as="sourcePoint" />
            <mxPoint x="489" y="294" as="targetPoint" />
            <mxPoint as="offset" />
          </mxGeometry>
        </mxCell>
        <mxCell id="bV5o39lrloHroLVsIdIn-58" value="d9" style="html=1;verticalAlign=bottom;labelBackgroundColor=none;endArrow=open;endFill=0;dashed=1;rounded=0;exitX=1;exitY=1;exitDx=0;exitDy=0;entryX=0;entryY=0;entryDx=0;entryDy=0;fontSize=15;" parent="1" source="bV5o39lrloHroLVsIdIn-11" target="bV5o39lrloHroLVsIdIn-35" edge="1">
          <mxGeometry x="0.4891" y="9" width="160" relative="1" as="geometry">
            <mxPoint x="329" y="294" as="sourcePoint" />
            <mxPoint x="489" y="294" as="targetPoint" />
            <mxPoint x="-1" as="offset" />
          </mxGeometry>
        </mxCell>
        <mxCell id="bV5o39lrloHroLVsIdIn-60" value="Ι1(2)" style="endArrow=classic;html=1;rounded=0;exitX=1;exitY=0.5;exitDx=0;exitDy=0;fontSize=15;entryX=0.04;entryY=0.35;entryDx=0;entryDy=0;entryPerimeter=0;" parent="1" source="bV5o39lrloHroLVsIdIn-53" target="5eL2fTGkV8nIUDm6z4PM-1" edge="1">
          <mxGeometry x="0.1051" y="16" width="50" height="50" relative="1" as="geometry">
            <mxPoint x="384" y="319" as="sourcePoint" />
            <mxPoint x="620" y="303" as="targetPoint" />
            <mxPoint as="offset" />
          </mxGeometry>
        </mxCell>
        <mxCell id="JHxFhu9wDer6dLDKZEK5-1" value="(0,0)" style="rounded=0;whiteSpace=wrap;html=1;gradientColor=none;fillColor=none;strokeColor=none;fontSize=15;" parent="1" vertex="1">
          <mxGeometry x="-450" y="346" width="120" height="60" as="geometry" />
        </mxCell>
        <mxCell id="JHxFhu9wDer6dLDKZEK5-2" value="(7,42)" style="rounded=0;whiteSpace=wrap;html=1;gradientColor=none;fillColor=none;strokeColor=none;fontSize=15;" parent="1" vertex="1">
          <mxGeometry x="-338" y="237" width="120" height="60" as="geometry" />
        </mxCell>
        <mxCell id="JHxFhu9wDer6dLDKZEK5-3" value="(18,53)" style="rounded=0;whiteSpace=wrap;html=1;gradientColor=none;fillColor=none;strokeColor=none;fontSize=15;" parent="1" vertex="1">
          <mxGeometry x="-226" y="133" width="120" height="60" as="geometry" />
        </mxCell>
        <mxCell id="JHxFhu9wDer6dLDKZEK5-4" value="(22,57)" style="rounded=0;whiteSpace=wrap;html=1;gradientColor=none;fillColor=none;strokeColor=none;fontSize=15;" parent="1" vertex="1">
          <mxGeometry x="-110" y="20" width="120" height="60" as="geometry" />
        </mxCell>
        <mxCell id="JHxFhu9wDer6dLDKZEK5-5" value="(25,65)" style="rounded=0;whiteSpace=wrap;html=1;gradientColor=none;fillColor=none;strokeColor=none;fontSize=15;" parent="1" vertex="1">
          <mxGeometry x="40" y="-100" width="120" height="60" as="geometry" />
        </mxCell>
        <mxCell id="JHxFhu9wDer6dLDKZEK5-6" value="(55,73)" style="rounded=0;whiteSpace=wrap;html=1;gradientColor=none;fillColor=none;strokeColor=none;fontSize=15;" parent="1" vertex="1">
          <mxGeometry x="290" y="-20" width="120" height="60" as="geometry" />
        </mxCell>
        <mxCell id="JHxFhu9wDer6dLDKZEK5-8" value="(24,63)" style="rounded=0;whiteSpace=wrap;html=1;gradientColor=none;fillColor=none;strokeColor=none;fontSize=15;" parent="1" vertex="1">
          <mxGeometry x="104" y="207" width="120" height="60" as="geometry" />
        </mxCell>
        <mxCell id="JHxFhu9wDer6dLDKZEK5-9" value="(75,75)" style="rounded=0;whiteSpace=wrap;html=1;gradientColor=none;fillColor=none;strokeColor=none;fontSize=15;" parent="1" vertex="1">
          <mxGeometry x="897" y="306" width="120" height="60" as="geometry" />
        </mxCell>
        <mxCell id="JHxFhu9wDer6dLDKZEK5-10" value="(75,75)" style="rounded=0;whiteSpace=wrap;html=1;gradientColor=none;fillColor=none;strokeColor=none;fontSize=15;" parent="1" vertex="1">
          <mxGeometry x="612" y="822" width="120" height="60" as="geometry" />
        </mxCell>
        <mxCell id="JHxFhu9wDer6dLDKZEK5-11" value="(75,75)" style="rounded=0;whiteSpace=wrap;html=1;gradientColor=none;fillColor=none;strokeColor=none;fontSize=15;" parent="1" vertex="1">
          <mxGeometry x="664" y="674" width="120" height="60" as="geometry" />
        </mxCell>
        <mxCell id="JHxFhu9wDer6dLDKZEK5-12" value="(63,63)" style="rounded=0;whiteSpace=wrap;html=1;gradientColor=none;fillColor=none;strokeColor=none;fontSize=15;" parent="1" vertex="1">
          <mxGeometry x="395" y="674" width="120" height="60" as="geometry" />
        </mxCell>
        <mxCell id="JHxFhu9wDer6dLDKZEK5-13" value="(57,57)" style="rounded=0;whiteSpace=wrap;html=1;gradientColor=none;fillColor=none;strokeColor=none;fontSize=15;" parent="1" vertex="1">
          <mxGeometry x="244" y="674" width="120" height="60" as="geometry" />
        </mxCell>
        <mxCell id="JHxFhu9wDer6dLDKZEK5-14" value="(55,55)" style="rounded=0;whiteSpace=wrap;html=1;gradientColor=none;fillColor=none;strokeColor=none;fontSize=15;" parent="1" vertex="1">
          <mxGeometry x="95" y="674" width="120" height="60" as="geometry" />
        </mxCell>
        <mxCell id="JHxFhu9wDer6dLDKZEK5-15" value="(25,25)" style="rounded=0;whiteSpace=wrap;html=1;gradientColor=none;fillColor=none;strokeColor=none;fontSize=15;" parent="1" vertex="1">
          <mxGeometry x="-54" y="674" width="120" height="60" as="geometry" />
        </mxCell>
        <mxCell id="JHxFhu9wDer6dLDKZEK5-16" value="(11,11)" style="rounded=0;whiteSpace=wrap;html=1;gradientColor=none;fillColor=none;strokeColor=none;fontSize=15;" parent="1" vertex="1">
          <mxGeometry x="-226" y="548" width="120" height="60" as="geometry" />
        </mxCell>
        <mxCell id="JHxFhu9wDer6dLDKZEK5-17" value="(7,7)" style="rounded=0;whiteSpace=wrap;html=1;gradientColor=none;fillColor=none;strokeColor=none;fontSize=15;" parent="1" vertex="1">
          <mxGeometry x="-338" y="465" width="120" height="60" as="geometry" />
        </mxCell>
        <mxCell id="rfGqmZKPn1L4s3iJn4F6-1" value="(64,74)" style="rounded=0;whiteSpace=wrap;html=1;gradientColor=none;fillColor=none;strokeColor=none;fontSize=15;" parent="1" vertex="1">
          <mxGeometry x="612" y="525" width="120" height="60" as="geometry" />
        </mxCell>
        <mxCell id="5eL2fTGkV8nIUDm6z4PM-1" value="13" style="ellipse;whiteSpace=wrap;html=1;aspect=fixed;fontSize=15;" parent="1" vertex="1">
          <mxGeometry x="652" y="301" width="40" height="40" as="geometry" />
        </mxCell>
        <mxCell id="5eL2fTGkV8nIUDm6z4PM-2" value="Ι2(3)" style="endArrow=classic;html=1;rounded=0;fontSize=15;entryX=0.012;entryY=0.35;entryDx=0;entryDy=0;exitX=1;exitY=0.5;exitDx=0;exitDy=0;entryPerimeter=0;" parent="1" source="5eL2fTGkV8nIUDm6z4PM-1" target="bV5o39lrloHroLVsIdIn-33" edge="1">
          <mxGeometry x="0.1051" y="16" width="50" height="50" relative="1" as="geometry">
            <mxPoint x="686" y="321" as="sourcePoint" />
            <mxPoint x="662" y="327" as="targetPoint" />
            <mxPoint as="offset" />
          </mxGeometry>
        </mxCell>
        <mxCell id="5eL2fTGkV8nIUDm6z4PM-3" value="(27,72)" style="rounded=0;whiteSpace=wrap;html=1;gradientColor=none;fillColor=none;strokeColor=none;fontSize=15;" parent="1" vertex="1">
          <mxGeometry x="612" y="258" width="120" height="60" as="geometry" />
        </mxCell>
        <mxCell id="5eL2fTGkV8nIUDm6z4PM-5" value="Η2(3)" style="endArrow=classic;html=1;rounded=0;exitX=1;exitY=1;exitDx=0;exitDy=0;fontSize=15;entryX=-0.009;entryY=0.647;entryDx=0;entryDy=0;entryPerimeter=0;" parent="1" source="bV5o39lrloHroLVsIdIn-13" target="bV5o39lrloHroLVsIdIn-33" edge="1">
          <mxGeometry x="-0.237" y="17" width="50" height="50" relative="1" as="geometry">
            <mxPoint x="244" y="301" as="sourcePoint" />
            <mxPoint x="888" y="386" as="targetPoint" />
            <mxPoint as="offset" />
          </mxGeometry>
        </mxCell>
        <mxCell id="W5qzCJv6sAsKCrkF9JDZ-1" value="(25,70)" style="rounded=0;whiteSpace=wrap;html=1;gradientColor=none;fillColor=none;strokeColor=none;fontSize=15;" vertex="1" parent="1">
          <mxGeometry x="309" y="170" width="120" height="60" as="geometry" />
        </mxCell>
      </root>
    </mxGraphModel>
  </diagram>
</mxfile>
